<svg width="767" height="801" viewBox="0 0 767 801" fill="none" xmlns="http://www.w3.org/2000/svg">
<rect x="290" y="460" width="186.178" height="53.5414" rx="4.46178" fill="#ED0000"/>
<path d="M340.77 483.247H342.795C342.765 482.362 342.593 481.605 342.278 480.975C341.978 480.33 341.558 479.797 341.018 479.377C340.493 478.957 339.878 478.65 339.173 478.455C338.468 478.26 337.703 478.162 336.878 478.162C336.143 478.162 335.423 478.26 334.718 478.455C334.028 478.635 333.405 478.92 332.851 479.31C332.311 479.685 331.876 480.172 331.546 480.772C331.216 481.357 331.051 482.055 331.051 482.865C331.051 483.6 331.193 484.215 331.478 484.71C331.778 485.19 332.168 485.587 332.648 485.902C333.143 486.202 333.698 486.45 334.313 486.645C334.928 486.825 335.55 486.99 336.18 487.139C336.825 487.274 337.455 487.409 338.07 487.544C338.685 487.679 339.233 487.859 339.713 488.084C340.208 488.294 340.598 488.572 340.883 488.917C341.183 489.262 341.333 489.712 341.333 490.267C341.333 490.852 341.213 491.332 340.973 491.707C340.733 492.082 340.418 492.382 340.028 492.607C339.638 492.817 339.195 492.967 338.7 493.057C338.22 493.147 337.74 493.192 337.26 493.192C336.66 493.192 336.075 493.117 335.505 492.967C334.935 492.817 334.433 492.584 333.998 492.269C333.578 491.954 333.233 491.557 332.963 491.077C332.708 490.582 332.581 489.997 332.581 489.322H330.556C330.556 490.297 330.728 491.144 331.073 491.864C331.433 492.569 331.913 493.154 332.513 493.619C333.128 494.069 333.833 494.407 334.628 494.632C335.438 494.857 336.293 494.969 337.193 494.969C337.928 494.969 338.663 494.879 339.398 494.699C340.148 494.534 340.823 494.264 341.423 493.889C342.023 493.499 342.51 493.004 342.885 492.404C343.275 491.789 343.47 491.054 343.47 490.199C343.47 489.404 343.32 488.744 343.02 488.219C342.735 487.694 342.345 487.259 341.85 486.915C341.37 486.57 340.823 486.3 340.208 486.105C339.593 485.895 338.963 485.715 338.318 485.565C337.688 485.415 337.065 485.28 336.45 485.16C335.835 485.025 335.28 484.86 334.785 484.665C334.305 484.47 333.915 484.222 333.615 483.922C333.33 483.607 333.188 483.202 333.188 482.707C333.188 482.182 333.285 481.747 333.48 481.402C333.69 481.042 333.96 480.757 334.29 480.547C334.635 480.337 335.025 480.187 335.46 480.097C335.895 480.007 336.338 479.962 336.788 479.962C337.898 479.962 338.805 480.225 339.51 480.75C340.23 481.26 340.65 482.092 340.77 483.247ZM345.753 478.545V494.609H347.665V488.039C347.665 487.514 347.733 487.035 347.868 486.6C348.018 486.15 348.235 485.76 348.52 485.43C348.805 485.1 349.158 484.845 349.578 484.665C350.013 484.485 350.523 484.395 351.108 484.395C351.843 484.395 352.42 484.605 352.84 485.025C353.26 485.445 353.47 486.015 353.47 486.735V494.609H355.382V486.96C355.382 486.33 355.315 485.76 355.18 485.25C355.06 484.725 354.842 484.275 354.527 483.9C354.212 483.525 353.8 483.232 353.29 483.022C352.78 482.812 352.143 482.707 351.378 482.707C351.033 482.707 350.673 482.745 350.298 482.82C349.938 482.895 349.585 483.015 349.24 483.18C348.91 483.33 348.61 483.532 348.34 483.787C348.07 484.027 347.86 484.327 347.71 484.687H347.665V478.545H345.753ZM359.65 488.804C359.65 488.099 359.74 487.477 359.92 486.937C360.115 486.382 360.377 485.917 360.707 485.542C361.037 485.167 361.42 484.882 361.855 484.687C362.305 484.492 362.777 484.395 363.272 484.395C363.767 484.395 364.232 484.492 364.667 484.687C365.117 484.882 365.507 485.167 365.837 485.542C366.167 485.917 366.422 486.382 366.602 486.937C366.797 487.477 366.895 488.099 366.895 488.804C366.895 489.509 366.797 490.139 366.602 490.694C366.422 491.234 366.167 491.692 365.837 492.067C365.507 492.427 365.117 492.704 364.667 492.899C364.232 493.094 363.767 493.192 363.272 493.192C362.777 493.192 362.305 493.094 361.855 492.899C361.42 492.704 361.037 492.427 360.707 492.067C360.377 491.692 360.115 491.234 359.92 490.694C359.74 490.139 359.65 489.509 359.65 488.804ZM357.625 488.804C357.625 489.659 357.745 490.454 357.985 491.189C358.225 491.924 358.585 492.569 359.065 493.124C359.545 493.664 360.137 494.092 360.842 494.407C361.547 494.707 362.357 494.857 363.272 494.857C364.202 494.857 365.012 494.707 365.702 494.407C366.407 494.092 367 493.664 367.48 493.124C367.96 492.569 368.32 491.924 368.56 491.189C368.8 490.454 368.92 489.659 368.92 488.804C368.92 487.949 368.8 487.154 368.56 486.42C368.32 485.67 367.96 485.025 367.48 484.485C367 483.93 366.407 483.495 365.702 483.18C365.012 482.865 364.202 482.707 363.272 482.707C362.357 482.707 361.547 482.865 360.842 483.18C360.137 483.495 359.545 483.93 359.065 484.485C358.585 485.025 358.225 485.67 357.985 486.42C357.745 487.154 357.625 487.949 357.625 488.804ZM371.242 482.977V499.042H373.155V493.057H373.2C373.41 493.402 373.665 493.694 373.965 493.934C374.28 494.159 374.61 494.339 374.955 494.474C375.299 494.609 375.644 494.707 375.989 494.767C376.349 494.827 376.672 494.857 376.957 494.857C377.842 494.857 378.614 494.699 379.274 494.384C379.949 494.069 380.504 493.642 380.939 493.102C381.389 492.547 381.719 491.902 381.929 491.167C382.154 490.432 382.267 489.652 382.267 488.827C382.267 488.002 382.154 487.222 381.929 486.487C381.704 485.752 381.367 485.107 380.917 484.552C380.482 483.982 379.927 483.532 379.252 483.202C378.592 482.872 377.812 482.707 376.912 482.707C376.102 482.707 375.359 482.857 374.685 483.157C374.01 483.442 373.515 483.907 373.2 484.552H373.155V482.977H371.242ZM380.242 488.692C380.242 489.262 380.182 489.817 380.062 490.357C379.942 490.897 379.747 491.377 379.477 491.797C379.207 492.217 378.847 492.554 378.397 492.809C377.962 493.064 377.414 493.192 376.754 493.192C376.094 493.192 375.532 493.072 375.067 492.832C374.602 492.577 374.22 492.247 373.92 491.842C373.635 491.437 373.425 490.972 373.29 490.447C373.155 489.907 373.087 489.352 373.087 488.782C373.087 488.242 373.147 487.709 373.267 487.184C373.402 486.66 373.612 486.195 373.897 485.79C374.182 485.37 374.55 485.032 375 484.777C375.449 484.522 375.997 484.395 376.642 484.395C377.257 484.395 377.789 484.515 378.239 484.755C378.704 484.995 379.079 485.317 379.364 485.722C379.664 486.127 379.882 486.592 380.017 487.117C380.167 487.627 380.242 488.152 380.242 488.692ZM391.066 478.545V494.609H393.091V481.717H393.136L401.529 494.609H403.869V478.545H401.844V491.572H401.799L393.339 478.545H391.066ZM408.406 488.804C408.406 488.099 408.496 487.477 408.676 486.937C408.871 486.382 409.134 485.917 409.464 485.542C409.794 485.167 410.176 484.882 410.611 484.687C411.061 484.492 411.534 484.395 412.029 484.395C412.524 484.395 412.989 484.492 413.424 484.687C413.874 484.882 414.264 485.167 414.594 485.542C414.924 485.917 415.179 486.382 415.359 486.937C415.554 487.477 415.651 488.099 415.651 488.804C415.651 489.509 415.554 490.139 415.359 490.694C415.179 491.234 414.924 491.692 414.594 492.067C414.264 492.427 413.874 492.704 413.424 492.899C412.989 493.094 412.524 493.192 412.029 493.192C411.534 493.192 411.061 493.094 410.611 492.899C410.176 492.704 409.794 492.427 409.464 492.067C409.134 491.692 408.871 491.234 408.676 490.694C408.496 490.139 408.406 489.509 408.406 488.804ZM406.381 488.804C406.381 489.659 406.501 490.454 406.741 491.189C406.981 491.924 407.341 492.569 407.821 493.124C408.301 493.664 408.894 494.092 409.599 494.407C410.304 494.707 411.114 494.857 412.029 494.857C412.959 494.857 413.769 494.707 414.459 494.407C415.164 494.092 415.756 493.664 416.236 493.124C416.716 492.569 417.076 491.924 417.316 491.189C417.556 490.454 417.676 489.659 417.676 488.804C417.676 487.949 417.556 487.154 417.316 486.42C417.076 485.67 416.716 485.025 416.236 484.485C415.756 483.93 415.164 483.495 414.459 483.18C413.769 482.865 412.959 482.707 412.029 482.707C411.114 482.707 410.304 482.865 409.599 483.18C408.894 483.495 408.301 483.93 407.821 484.485C407.341 485.025 406.981 485.67 406.741 486.42C406.501 487.154 406.381 487.949 406.381 488.804ZM431.451 494.609L435.163 482.977H433.183L430.573 492.494H430.528L428.098 482.977H426.006L423.666 492.494H423.621L420.989 482.977H418.874L422.609 494.609H424.679L427.018 485.362H427.063L429.426 494.609H431.451Z" fill="white"/>
<path d="M167.002 380.11H164.452C164.492 381.07 164.692 381.89 165.052 382.57C165.412 383.23 165.892 383.77 166.492 384.19C167.092 384.59 167.782 384.88 168.562 385.06C169.342 385.24 170.162 385.33 171.022 385.33C171.802 385.33 172.582 385.25 173.362 385.09C174.162 384.95 174.872 384.69 175.492 384.31C176.132 383.93 176.642 383.43 177.022 382.81C177.422 382.19 177.622 381.41 177.622 380.47C177.622 379.73 177.472 379.11 177.172 378.61C176.892 378.11 176.512 377.7 176.032 377.38C175.572 377.04 175.032 376.77 174.412 376.57C173.812 376.37 173.192 376.2 172.552 376.06C171.952 375.92 171.352 375.79 170.752 375.67C170.152 375.53 169.612 375.37 169.132 375.19C168.652 374.99 168.252 374.75 167.932 374.47C167.632 374.17 167.482 373.8 167.482 373.36C167.482 372.96 167.582 372.64 167.782 372.4C167.982 372.14 168.242 371.94 168.562 371.8C168.882 371.64 169.232 371.53 169.612 371.47C170.012 371.41 170.402 371.38 170.782 371.38C171.202 371.38 171.612 371.43 172.012 371.53C172.432 371.61 172.812 371.75 173.152 371.95C173.492 372.15 173.772 372.42 173.992 372.76C174.212 373.08 174.342 373.49 174.382 373.99H176.932C176.872 373.05 176.672 372.27 176.332 371.65C175.992 371.01 175.532 370.51 174.952 370.15C174.392 369.77 173.742 369.51 173.002 369.37C172.262 369.21 171.452 369.13 170.572 369.13C169.892 369.13 169.202 369.22 168.502 369.4C167.822 369.56 167.202 369.82 166.642 370.18C166.102 370.52 165.652 370.97 165.292 371.53C164.952 372.09 164.782 372.76 164.782 373.54C164.782 374.54 165.032 375.32 165.532 375.88C166.032 376.44 166.652 376.88 167.392 377.2C168.152 377.5 168.972 377.74 169.852 377.92C170.732 378.08 171.542 378.27 172.282 378.49C173.042 378.69 173.672 378.96 174.172 379.3C174.672 379.64 174.922 380.14 174.922 380.8C174.922 381.28 174.802 381.68 174.562 382C174.322 382.3 174.012 382.53 173.632 382.69C173.272 382.85 172.872 382.96 172.432 383.02C171.992 383.08 171.572 383.11 171.172 383.11C170.652 383.11 170.142 383.06 169.642 382.96C169.162 382.86 168.722 382.7 168.322 382.48C167.942 382.24 167.632 381.93 167.392 381.55C167.152 381.15 167.022 380.67 167.002 380.11ZM191.212 375.76H182.302C182.342 375.16 182.472 374.6 182.692 374.08C182.912 373.54 183.212 373.07 183.592 372.67C183.972 372.27 184.422 371.96 184.942 371.74C185.482 371.5 186.082 371.38 186.742 371.38C187.382 371.38 187.962 371.5 188.482 371.74C189.022 371.96 189.482 372.27 189.862 372.67C190.262 373.05 190.572 373.51 190.792 374.05C191.032 374.59 191.172 375.16 191.212 375.76ZM193.672 380.08H191.152C190.932 381.1 190.472 381.86 189.772 382.36C189.092 382.86 188.212 383.11 187.132 383.11C186.292 383.11 185.562 382.97 184.942 382.69C184.322 382.41 183.812 382.04 183.412 381.58C183.012 381.1 182.722 380.56 182.542 379.96C182.362 379.34 182.282 378.69 182.302 378.01H193.912C193.952 377.07 193.862 376.08 193.642 375.04C193.442 374 193.062 373.04 192.502 372.16C191.962 371.28 191.232 370.56 190.312 370C189.412 369.42 188.272 369.13 186.892 369.13C185.832 369.13 184.852 369.33 183.952 369.73C183.072 370.13 182.302 370.69 181.642 371.41C181.002 372.13 180.502 372.98 180.142 373.96C179.782 374.94 179.602 376.02 179.602 377.2C179.642 378.38 179.812 379.47 180.112 380.47C180.432 381.47 180.902 382.33 181.522 383.05C182.142 383.77 182.902 384.33 183.802 384.73C184.722 385.13 185.802 385.33 187.042 385.33C188.802 385.33 190.262 384.89 191.422 384.01C192.582 383.13 193.332 381.82 193.672 380.08ZM203.546 385L209.216 369.49H206.546L202.316 382.42H202.256L197.906 369.49H195.056L200.816 385H203.546ZM222.326 375.76H213.416C213.456 375.16 213.586 374.6 213.806 374.08C214.026 373.54 214.326 373.07 214.706 372.67C215.086 372.27 215.536 371.96 216.056 371.74C216.596 371.5 217.196 371.38 217.856 371.38C218.496 371.38 219.076 371.5 219.596 371.74C220.136 371.96 220.596 372.27 220.976 372.67C221.376 373.05 221.686 373.51 221.906 374.05C222.146 374.59 222.286 375.16 222.326 375.76ZM224.786 380.08H222.266C222.046 381.1 221.586 381.86 220.886 382.36C220.206 382.86 219.326 383.11 218.246 383.11C217.406 383.11 216.676 382.97 216.056 382.69C215.436 382.41 214.926 382.04 214.526 381.58C214.126 381.1 213.836 380.56 213.656 379.96C213.476 379.34 213.396 378.69 213.416 378.01H225.026C225.066 377.07 224.976 376.08 224.756 375.04C224.556 374 224.176 373.04 223.616 372.16C223.076 371.28 222.346 370.56 221.426 370C220.526 369.42 219.386 369.13 218.006 369.13C216.946 369.13 215.966 369.33 215.066 369.73C214.186 370.13 213.416 370.69 212.756 371.41C212.116 372.13 211.616 372.98 211.256 373.96C210.896 374.94 210.716 376.02 210.716 377.2C210.756 378.38 210.926 379.47 211.226 380.47C211.546 381.47 212.016 382.33 212.636 383.05C213.256 383.77 214.016 384.33 214.916 384.73C215.836 385.13 216.916 385.33 218.156 385.33C219.916 385.33 221.376 384.89 222.536 384.01C223.696 383.13 224.446 381.82 224.786 380.08ZM227.669 369.49V385H230.219V376.24C230.219 375.54 230.309 374.9 230.489 374.32C230.689 373.72 230.979 373.2 231.359 372.76C231.739 372.32 232.209 371.98 232.769 371.74C233.349 371.5 234.029 371.38 234.809 371.38C235.789 371.38 236.559 371.66 237.119 372.22C237.679 372.78 237.959 373.54 237.959 374.5V385H240.509V374.8C240.509 373.96 240.419 373.2 240.239 372.52C240.079 371.82 239.789 371.22 239.369 370.72C238.949 370.22 238.399 369.83 237.719 369.55C237.039 369.27 236.189 369.13 235.169 369.13C232.869 369.13 231.189 370.07 230.129 371.95H230.069V369.49H227.669ZM254.549 377.38C254.549 376.62 254.629 375.88 254.789 375.16C254.949 374.44 255.209 373.8 255.569 373.24C255.929 372.68 256.409 372.23 257.009 371.89C257.609 371.55 258.339 371.38 259.199 371.38C260.079 371.38 260.829 371.55 261.449 371.89C262.069 372.21 262.569 372.64 262.949 373.18C263.349 373.72 263.639 374.35 263.819 375.07C263.999 375.77 264.089 376.5 264.089 377.26C264.089 377.98 263.999 378.69 263.819 379.39C263.659 380.09 263.389 380.72 263.009 381.28C262.629 381.82 262.139 382.26 261.539 382.6C260.939 382.94 260.209 383.11 259.349 383.11C258.529 383.11 257.809 382.95 257.189 382.63C256.589 382.31 256.089 381.88 255.689 381.34C255.309 380.8 255.019 380.19 254.819 379.51C254.639 378.81 254.549 378.1 254.549 377.38ZM266.549 385V363.58H263.999V371.56H263.939C263.659 371.1 263.309 370.72 262.889 370.42C262.489 370.1 262.059 369.85 261.599 369.67C261.139 369.47 260.679 369.33 260.219 369.25C259.759 369.17 259.329 369.13 258.929 369.13C257.749 369.13 256.709 369.35 255.809 369.79C254.929 370.21 254.189 370.79 253.589 371.53C253.009 372.25 252.569 373.1 252.269 374.08C251.989 375.06 251.849 376.1 251.849 377.2C251.849 378.3 251.999 379.34 252.299 380.32C252.599 381.3 253.039 382.16 253.619 382.9C254.219 383.64 254.959 384.23 255.839 384.67C256.739 385.11 257.789 385.33 258.989 385.33C260.069 385.33 261.059 385.14 261.959 384.76C262.859 384.38 263.519 383.76 263.939 382.9H263.999V385H266.549ZM284.212 384.94C283.772 385.2 283.162 385.33 282.382 385.33C281.722 385.33 281.192 385.15 280.792 384.79C280.412 384.41 280.222 383.8 280.222 382.96C279.522 383.8 278.702 384.41 277.762 384.79C276.842 385.15 275.842 385.33 274.762 385.33C274.062 385.33 273.392 385.25 272.752 385.09C272.132 384.93 271.592 384.68 271.132 384.34C270.672 384 270.302 383.56 270.022 383.02C269.762 382.46 269.632 381.79 269.632 381.01C269.632 380.13 269.782 379.41 270.082 378.85C270.382 378.29 270.772 377.84 271.252 377.5C271.752 377.14 272.312 376.87 272.932 376.69C273.572 376.51 274.222 376.36 274.882 376.24C275.582 376.1 276.242 376 276.862 375.94C277.502 375.86 278.062 375.76 278.542 375.64C279.022 375.5 279.402 375.31 279.682 375.07C279.962 374.81 280.102 374.44 280.102 373.96C280.102 373.4 279.992 372.95 279.772 372.61C279.572 372.27 279.302 372.01 278.962 371.83C278.642 371.65 278.272 371.53 277.852 371.47C277.452 371.41 277.052 371.38 276.652 371.38C275.572 371.38 274.672 371.59 273.952 372.01C273.232 372.41 272.842 373.18 272.782 374.32H270.232C270.272 373.36 270.472 372.55 270.832 371.89C271.192 371.23 271.672 370.7 272.272 370.3C272.872 369.88 273.552 369.58 274.312 369.4C275.092 369.22 275.922 369.13 276.802 369.13C277.502 369.13 278.192 369.18 278.872 369.28C279.572 369.38 280.202 369.59 280.762 369.91C281.322 370.21 281.772 370.64 282.112 371.2C282.452 371.76 282.622 372.49 282.622 373.39V381.37C282.622 381.97 282.652 382.41 282.712 382.69C282.792 382.97 283.032 383.11 283.432 383.11C283.652 383.11 283.912 383.06 284.212 382.96V384.94ZM280.072 376.99C279.752 377.23 279.332 377.41 278.812 377.53C278.292 377.63 277.742 377.72 277.162 377.8C276.602 377.86 276.032 377.94 275.452 378.04C274.872 378.12 274.352 378.26 273.892 378.46C273.432 378.66 273.052 378.95 272.752 379.33C272.472 379.69 272.332 380.19 272.332 380.83C272.332 381.25 272.412 381.61 272.572 381.91C272.752 382.19 272.972 382.42 273.232 382.6C273.512 382.78 273.832 382.91 274.192 382.99C274.552 383.07 274.932 383.11 275.332 383.11C276.172 383.11 276.892 383 277.492 382.78C278.092 382.54 278.582 382.25 278.962 381.91C279.342 381.55 279.622 381.17 279.802 380.77C279.982 380.35 280.072 379.96 280.072 379.6V376.99ZM292.675 387.07C292.375 387.83 292.075 388.47 291.775 388.99C291.495 389.51 291.175 389.93 290.815 390.25C290.475 390.59 290.085 390.83 289.645 390.97C289.225 391.13 288.735 391.21 288.175 391.21C287.875 391.21 287.575 391.19 287.275 391.15C286.975 391.11 286.685 391.04 286.405 390.94V388.6C286.625 388.7 286.875 388.78 287.155 388.84C287.455 388.92 287.705 388.96 287.905 388.96C288.425 388.96 288.855 388.83 289.195 388.57C289.555 388.33 289.825 387.98 290.005 387.52L291.055 384.91L284.905 369.49H287.785L292.315 382.18H292.375L296.725 369.49H299.425L292.675 387.07ZM303.145 380.11H300.595C300.635 381.07 300.835 381.89 301.195 382.57C301.555 383.23 302.035 383.77 302.635 384.19C303.235 384.59 303.925 384.88 304.705 385.06C305.485 385.24 306.305 385.33 307.165 385.33C307.945 385.33 308.725 385.25 309.505 385.09C310.305 384.95 311.015 384.69 311.635 384.31C312.275 383.93 312.785 383.43 313.165 382.81C313.565 382.19 313.765 381.41 313.765 380.47C313.765 379.73 313.615 379.11 313.315 378.61C313.035 378.11 312.655 377.7 312.175 377.38C311.715 377.04 311.175 376.77 310.555 376.57C309.955 376.37 309.335 376.2 308.695 376.06C308.095 375.92 307.495 375.79 306.895 375.67C306.295 375.53 305.755 375.37 305.275 375.19C304.795 374.99 304.395 374.75 304.075 374.47C303.775 374.17 303.625 373.8 303.625 373.36C303.625 372.96 303.725 372.64 303.925 372.4C304.125 372.14 304.385 371.94 304.705 371.8C305.025 371.64 305.375 371.53 305.755 371.47C306.155 371.41 306.545 371.38 306.925 371.38C307.345 371.38 307.755 371.43 308.155 371.53C308.575 371.61 308.955 371.75 309.295 371.95C309.635 372.15 309.915 372.42 310.135 372.76C310.355 373.08 310.485 373.49 310.525 373.99H313.075C313.015 373.05 312.815 372.27 312.475 371.65C312.135 371.01 311.675 370.51 311.095 370.15C310.535 369.77 309.885 369.51 309.145 369.37C308.405 369.21 307.595 369.13 306.715 369.13C306.035 369.13 305.345 369.22 304.645 369.4C303.965 369.56 303.345 369.82 302.785 370.18C302.245 370.52 301.795 370.97 301.435 371.53C301.095 372.09 300.925 372.76 300.925 373.54C300.925 374.54 301.175 375.32 301.675 375.88C302.175 376.44 302.795 376.88 303.535 377.2C304.295 377.5 305.115 377.74 305.995 377.92C306.875 378.08 307.685 378.27 308.425 378.49C309.185 378.69 309.815 378.96 310.315 379.3C310.815 379.64 311.065 380.14 311.065 380.8C311.065 381.28 310.945 381.68 310.705 382C310.465 382.3 310.155 382.53 309.775 382.69C309.415 382.85 309.015 382.96 308.575 383.02C308.135 383.08 307.715 383.11 307.315 383.11C306.795 383.11 306.285 383.06 305.785 382.96C305.305 382.86 304.865 382.7 304.465 382.48C304.085 382.24 303.775 381.93 303.535 381.55C303.295 381.15 303.165 380.67 303.145 380.11ZM326.795 377.26C326.795 376.32 326.915 375.49 327.155 374.77C327.415 374.03 327.765 373.41 328.205 372.91C328.645 372.41 329.155 372.03 329.735 371.77C330.335 371.51 330.965 371.38 331.625 371.38C332.285 371.38 332.905 371.51 333.485 371.77C334.085 372.03 334.605 372.41 335.045 372.91C335.485 373.41 335.825 374.03 336.065 374.77C336.325 375.49 336.455 376.32 336.455 377.26C336.455 378.2 336.325 379.04 336.065 379.78C335.825 380.5 335.485 381.11 335.045 381.61C334.605 382.09 334.085 382.46 333.485 382.72C332.905 382.98 332.285 383.11 331.625 383.11C330.965 383.11 330.335 382.98 329.735 382.72C329.155 382.46 328.645 382.09 328.205 381.61C327.765 381.11 327.415 380.5 327.155 379.78C326.915 379.04 326.795 378.2 326.795 377.26ZM324.095 377.26C324.095 378.4 324.255 379.46 324.575 380.44C324.895 381.42 325.375 382.28 326.015 383.02C326.655 383.74 327.445 384.31 328.385 384.73C329.325 385.13 330.405 385.33 331.625 385.33C332.865 385.33 333.945 385.13 334.865 384.73C335.805 384.31 336.595 383.74 337.235 383.02C337.875 382.28 338.355 381.42 338.675 380.44C338.995 379.46 339.155 378.4 339.155 377.26C339.155 376.12 338.995 375.06 338.675 374.08C338.355 373.08 337.875 372.22 337.235 371.5C336.595 370.76 335.805 370.18 334.865 369.76C333.945 369.34 332.865 369.13 331.625 369.13C330.405 369.13 329.325 369.34 328.385 369.76C327.445 370.18 326.655 370.76 326.015 371.5C325.375 372.22 324.895 373.08 324.575 374.08C324.255 375.06 324.095 376.12 324.095 377.26ZM343.211 371.74V385H345.761V371.74H348.761V369.49H345.761V367.33C345.761 366.65 345.931 366.19 346.271 365.95C346.611 365.71 347.091 365.59 347.711 365.59C347.931 365.59 348.171 365.61 348.431 365.65C348.691 365.67 348.931 365.72 349.151 365.8V363.58C348.911 363.5 348.631 363.44 348.311 363.4C348.011 363.36 347.741 363.34 347.501 363.34C346.101 363.34 345.031 363.67 344.291 364.33C343.571 364.97 343.211 365.92 343.211 367.18V369.49H340.601V371.74H343.211ZM359.088 363.58V385H363.348V376.87C363.348 375.29 363.608 374.16 364.128 373.48C364.648 372.78 365.488 372.43 366.648 372.43C367.668 372.43 368.378 372.75 368.778 373.39C369.178 374.01 369.378 374.96 369.378 376.24V385H373.638V375.46C373.638 374.5 373.548 373.63 373.368 372.85C373.208 372.05 372.918 371.38 372.498 370.84C372.078 370.28 371.498 369.85 370.758 369.55C370.038 369.23 369.108 369.07 367.968 369.07C367.168 369.07 366.348 369.28 365.508 369.7C364.668 370.1 363.978 370.75 363.438 371.65H363.348V363.58H359.088ZM391.421 385V369.49H387.161V377.62C387.161 379.2 386.901 380.34 386.381 381.04C385.861 381.72 385.021 382.06 383.861 382.06C382.841 382.06 382.131 381.75 381.731 381.13C381.331 380.49 381.131 379.53 381.131 378.25V369.49H376.871V379.03C376.871 379.99 376.951 380.87 377.111 381.67C377.291 382.45 377.591 383.12 378.011 383.68C378.431 384.22 379.001 384.64 379.721 384.94C380.461 385.24 381.401 385.39 382.541 385.39C383.441 385.39 384.321 385.19 385.181 384.79C386.041 384.39 386.741 383.74 387.281 382.84H387.371V385H391.421ZM401.884 381.34C401.224 381.34 400.674 381.2 400.234 380.92C399.794 380.64 399.434 380.28 399.154 379.84C398.894 379.4 398.704 378.91 398.584 378.37C398.484 377.81 398.434 377.25 398.434 376.69C398.434 376.11 398.494 375.56 398.614 375.04C398.754 374.5 398.964 374.03 399.244 373.63C399.544 373.21 399.904 372.88 400.324 372.64C400.764 372.4 401.284 372.28 401.884 372.28C402.584 372.28 403.164 372.41 403.624 372.67C404.084 372.93 404.454 373.28 404.734 373.72C405.014 374.16 405.214 374.67 405.334 375.25C405.454 375.81 405.514 376.41 405.514 377.05C405.514 377.61 405.434 378.15 405.274 378.67C405.134 379.17 404.914 379.62 404.614 380.02C404.314 380.42 403.934 380.74 403.474 380.98C403.014 381.22 402.484 381.34 401.884 381.34ZM409.564 384.01V369.49H405.514V371.56H405.454C404.934 370.66 404.284 370.02 403.504 369.64C402.744 369.26 401.854 369.07 400.834 369.07C399.754 369.07 398.794 369.28 397.954 369.7C397.134 370.12 396.444 370.69 395.884 371.41C395.324 372.11 394.894 372.93 394.594 373.87C394.314 374.79 394.174 375.75 394.174 376.75C394.174 377.81 394.294 378.82 394.534 379.78C394.794 380.72 395.194 381.55 395.734 382.27C396.274 382.97 396.964 383.53 397.804 383.95C398.644 384.35 399.644 384.55 400.804 384.55C401.744 384.55 402.634 384.36 403.474 383.98C404.334 383.58 404.994 382.97 405.454 382.15H405.514V384.19C405.534 385.29 405.264 386.2 404.704 386.92C404.164 387.64 403.294 388 402.094 388C401.334 388 400.664 387.84 400.084 387.52C399.504 387.22 399.114 386.67 398.914 385.87H394.684C394.744 386.75 394.984 387.5 395.404 388.12C395.844 388.76 396.384 389.28 397.024 389.68C397.684 390.08 398.404 390.37 399.184 390.55C399.984 390.75 400.764 390.85 401.524 390.85C403.304 390.85 404.724 390.61 405.784 390.13C406.844 389.65 407.654 389.06 408.214 388.36C408.774 387.68 409.134 386.94 409.294 386.14C409.474 385.34 409.564 384.63 409.564 384.01ZM423.434 375.58H416.504C416.524 375.28 416.584 374.94 416.684 374.56C416.804 374.18 416.994 373.82 417.254 373.48C417.534 373.14 417.894 372.86 418.334 372.64C418.794 372.4 419.364 372.28 420.044 372.28C421.084 372.28 421.854 372.56 422.354 373.12C422.874 373.68 423.234 374.5 423.434 375.58ZM416.504 378.28H427.694C427.774 377.08 427.674 375.93 427.394 374.83C427.114 373.73 426.654 372.75 426.014 371.89C425.394 371.03 424.594 370.35 423.614 369.85C422.634 369.33 421.484 369.07 420.164 369.07C418.984 369.07 417.904 369.28 416.924 369.7C415.964 370.12 415.134 370.7 414.434 371.44C413.734 372.16 413.194 373.02 412.814 374.02C412.434 375.02 412.244 376.1 412.244 377.26C412.244 378.46 412.424 379.56 412.784 380.56C413.164 381.56 413.694 382.42 414.374 383.14C415.054 383.86 415.884 384.42 416.864 384.82C417.844 385.2 418.944 385.39 420.164 385.39C421.924 385.39 423.424 384.99 424.664 384.19C425.904 383.39 426.824 382.06 427.424 380.2H423.674C423.534 380.68 423.154 381.14 422.534 381.58C421.914 382 421.174 382.21 420.314 382.21C419.114 382.21 418.194 381.9 417.554 381.28C416.914 380.66 416.564 379.66 416.504 378.28ZM438.57 363.58V385H442.83V376.87C442.83 375.29 443.09 374.16 443.61 373.48C444.13 372.78 444.97 372.43 446.13 372.43C447.15 372.43 447.86 372.75 448.26 373.39C448.66 374.01 448.86 374.96 448.86 376.24V385H453.12V375.46C453.12 374.5 453.03 373.63 452.85 372.85C452.69 372.05 452.4 371.38 451.98 370.84C451.56 370.28 450.98 369.85 450.24 369.55C449.52 369.23 448.59 369.07 447.45 369.07C446.65 369.07 445.83 369.28 444.99 369.7C444.15 370.1 443.46 370.75 442.92 371.65H442.83V363.58H438.57ZM460.133 377.26C460.133 376.64 460.193 376.03 460.313 375.43C460.433 374.83 460.633 374.3 460.913 373.84C461.213 373.38 461.603 373.01 462.083 372.73C462.563 372.43 463.163 372.28 463.883 372.28C464.603 372.28 465.203 372.43 465.683 372.73C466.183 373.01 466.573 373.38 466.853 373.84C467.153 374.3 467.363 374.83 467.483 375.43C467.603 376.03 467.663 376.64 467.663 377.26C467.663 377.88 467.603 378.49 467.483 379.09C467.363 379.67 467.153 380.2 466.853 380.68C466.573 381.14 466.183 381.51 465.683 381.79C465.203 382.07 464.603 382.21 463.883 382.21C463.163 382.21 462.563 382.07 462.083 381.79C461.603 381.51 461.213 381.14 460.913 380.68C460.633 380.2 460.433 379.67 460.313 379.09C460.193 378.49 460.133 377.88 460.133 377.26ZM455.873 377.26C455.873 378.5 456.063 379.62 456.443 380.62C456.823 381.62 457.363 382.48 458.063 383.2C458.763 383.9 459.603 384.44 460.583 384.82C461.563 385.2 462.663 385.39 463.883 385.39C465.103 385.39 466.203 385.2 467.183 384.82C468.183 384.44 469.033 383.9 469.733 383.2C470.433 382.48 470.973 381.62 471.353 380.62C471.733 379.62 471.923 378.5 471.923 377.26C471.923 376.02 471.733 374.9 471.353 373.9C470.973 372.88 470.433 372.02 469.733 371.32C469.033 370.6 468.183 370.05 467.183 369.67C466.203 369.27 465.103 369.07 463.883 369.07C462.663 369.07 461.563 369.27 460.583 369.67C459.603 370.05 458.763 370.6 458.063 371.32C457.363 372.02 456.823 372.88 456.443 373.9C456.063 374.9 455.873 376.02 455.873 377.26ZM474.813 369.49V385H479.073V376C479.073 375.24 479.183 374.63 479.403 374.17C479.623 373.69 479.883 373.33 480.183 373.09C480.503 372.83 480.823 372.66 481.143 372.58C481.483 372.48 481.753 372.43 481.953 372.43C482.633 372.43 483.143 372.55 483.483 372.79C483.843 373.01 484.093 373.31 484.233 373.69C484.393 374.07 484.483 374.49 484.503 374.95C484.523 375.39 484.533 375.84 484.533 376.3V385H488.793V376.36C488.793 375.88 488.823 375.41 488.883 374.95C488.963 374.47 489.103 374.05 489.303 373.69C489.523 373.31 489.813 373.01 490.173 372.79C490.553 372.55 491.043 372.43 491.643 372.43C492.243 372.43 492.713 372.53 493.053 372.73C493.413 372.93 493.683 373.2 493.863 373.54C494.043 373.88 494.153 374.28 494.193 374.74C494.233 375.2 494.253 375.69 494.253 376.21V385H498.513V374.62C498.513 373.62 498.373 372.77 498.093 372.07C497.813 371.35 497.423 370.77 496.923 370.33C496.423 369.89 495.823 369.57 495.123 369.37C494.423 369.17 493.663 369.07 492.843 369.07C491.763 369.07 490.823 369.33 490.023 369.85C489.243 370.37 488.623 370.97 488.163 371.65C487.743 370.69 487.123 370.02 486.303 369.64C485.503 369.26 484.613 369.07 483.633 369.07C482.613 369.07 481.703 369.29 480.903 369.73C480.123 370.17 479.453 370.79 478.893 371.59H478.833V369.49H474.813ZM512.321 375.58H505.391C505.411 375.28 505.471 374.94 505.571 374.56C505.691 374.18 505.881 373.82 506.141 373.48C506.421 373.14 506.781 372.86 507.221 372.64C507.681 372.4 508.251 372.28 508.931 372.28C509.971 372.28 510.741 372.56 511.241 373.12C511.761 373.68 512.121 374.5 512.321 375.58ZM505.391 378.28H516.581C516.661 377.08 516.561 375.93 516.281 374.83C516.001 373.73 515.541 372.75 514.901 371.89C514.281 371.03 513.481 370.35 512.501 369.85C511.521 369.33 510.371 369.07 509.051 369.07C507.871 369.07 506.791 369.28 505.811 369.7C504.851 370.12 504.021 370.7 503.321 371.44C502.621 372.16 502.081 373.02 501.701 374.02C501.321 375.02 501.131 376.1 501.131 377.26C501.131 378.46 501.311 379.56 501.671 380.56C502.051 381.56 502.581 382.42 503.261 383.14C503.941 383.86 504.771 384.42 505.751 384.82C506.731 385.2 507.831 385.39 509.051 385.39C510.811 385.39 512.311 384.99 513.551 384.19C514.791 383.39 515.711 382.06 516.311 380.2H512.561C512.421 380.68 512.041 381.14 511.421 381.58C510.801 382 510.061 382.21 509.201 382.21C508.001 382.21 507.081 381.9 506.441 381.28C505.801 380.66 505.451 379.66 505.391 378.28ZM538.467 377.2C538.467 377.84 538.407 378.46 538.287 379.06C538.167 379.66 537.967 380.2 537.687 380.68C537.407 381.14 537.027 381.51 536.547 381.79C536.087 382.07 535.507 382.21 534.807 382.21C534.147 382.21 533.577 382.07 533.097 381.79C532.637 381.49 532.247 381.11 531.927 380.65C531.627 380.17 531.407 379.63 531.267 379.03C531.127 378.43 531.057 377.83 531.057 377.23C531.057 376.59 531.117 375.98 531.237 375.4C531.377 374.8 531.587 374.27 531.867 373.81C532.167 373.35 532.557 372.98 533.037 372.7C533.517 372.42 534.107 372.28 534.807 372.28C535.507 372.28 536.087 372.42 536.547 372.7C537.007 372.98 537.377 373.35 537.657 373.81C537.957 374.25 538.167 374.77 538.287 375.37C538.407 375.95 538.467 376.56 538.467 377.2ZM538.527 383.02V385H542.577V363.58H538.317V371.38H538.257C537.777 370.62 537.117 370.05 536.277 369.67C535.457 369.27 534.587 369.07 533.667 369.07C532.527 369.07 531.527 369.3 530.667 369.76C529.807 370.2 529.087 370.79 528.507 371.53C527.947 372.27 527.517 373.13 527.217 374.11C526.937 375.07 526.797 376.07 526.797 377.11C526.797 378.19 526.937 379.23 527.217 380.23C527.517 381.23 527.947 382.12 528.507 382.9C529.087 383.66 529.817 384.27 530.697 384.73C531.577 385.17 532.597 385.39 533.757 385.39C534.777 385.39 535.687 385.21 536.487 384.85C537.307 384.47 537.967 383.86 538.467 383.02H538.527ZM556.237 375.58H549.307C549.327 375.28 549.387 374.94 549.487 374.56C549.607 374.18 549.797 373.82 550.057 373.48C550.337 373.14 550.697 372.86 551.137 372.64C551.597 372.4 552.167 372.28 552.847 372.28C553.887 372.28 554.657 372.56 555.157 373.12C555.677 373.68 556.037 374.5 556.237 375.58ZM549.307 378.28H560.497C560.577 377.08 560.477 375.93 560.197 374.83C559.917 373.73 559.457 372.75 558.817 371.89C558.197 371.03 557.397 370.35 556.417 369.85C555.437 369.33 554.287 369.07 552.967 369.07C551.787 369.07 550.707 369.28 549.727 369.7C548.767 370.12 547.937 370.7 547.237 371.44C546.537 372.16 545.997 373.02 545.617 374.02C545.237 375.02 545.047 376.1 545.047 377.26C545.047 378.46 545.227 379.56 545.587 380.56C545.967 381.56 546.497 382.42 547.177 383.14C547.857 383.86 548.687 384.42 549.667 384.82C550.647 385.2 551.747 385.39 552.967 385.39C554.727 385.39 556.227 384.99 557.467 384.19C558.707 383.39 559.627 382.06 560.227 380.2H556.477C556.337 380.68 555.957 381.14 555.337 381.58C554.717 382 553.977 382.21 553.117 382.21C551.917 382.21 550.997 381.9 550.357 381.28C549.717 380.66 549.367 379.66 549.307 378.28ZM562.843 374.26C562.903 373.26 563.153 372.43 563.593 371.77C564.033 371.11 564.593 370.58 565.273 370.18C565.953 369.78 566.713 369.5 567.553 369.34C568.413 369.16 569.273 369.07 570.133 369.07C570.913 369.07 571.703 369.13 572.503 369.25C573.303 369.35 574.033 369.56 574.693 369.88C575.353 370.2 575.893 370.65 576.313 371.23C576.733 371.79 576.943 372.54 576.943 373.48V381.55C576.943 382.25 576.983 382.92 577.063 383.56C577.143 384.2 577.283 384.68 577.483 385H573.163C573.083 384.76 573.013 384.52 572.953 384.28C572.913 384.02 572.883 383.76 572.863 383.5C572.183 384.2 571.383 384.69 570.463 384.97C569.543 385.25 568.603 385.39 567.643 385.39C566.903 385.39 566.213 385.3 565.573 385.12C564.933 384.94 564.373 384.66 563.893 384.28C563.413 383.9 563.033 383.42 562.753 382.84C562.493 382.26 562.363 381.57 562.363 380.77C562.363 379.89 562.513 379.17 562.813 378.61C563.133 378.03 563.533 377.57 564.013 377.23C564.513 376.89 565.073 376.64 565.693 376.48C566.333 376.3 566.973 376.16 567.613 376.06C568.253 375.96 568.883 375.88 569.503 375.82C570.123 375.76 570.673 375.67 571.153 375.55C571.633 375.43 572.013 375.26 572.293 375.04C572.573 374.8 572.703 374.46 572.683 374.02C572.683 373.56 572.603 373.2 572.443 372.94C572.303 372.66 572.103 372.45 571.843 372.31C571.603 372.15 571.313 372.05 570.973 372.01C570.653 371.95 570.303 371.92 569.923 371.92C569.083 371.92 568.423 372.1 567.943 372.46C567.463 372.82 567.183 373.42 567.103 374.26H562.843ZM572.683 377.41C572.503 377.57 572.273 377.7 571.993 377.8C571.733 377.88 571.443 377.95 571.123 378.01C570.823 378.07 570.503 378.12 570.163 378.16C569.823 378.2 569.483 378.25 569.143 378.31C568.823 378.37 568.503 378.45 568.183 378.55C567.883 378.65 567.613 378.79 567.373 378.97C567.153 379.13 566.973 379.34 566.833 379.6C566.693 379.86 566.623 380.19 566.623 380.59C566.623 380.97 566.693 381.29 566.833 381.55C566.973 381.81 567.163 382.02 567.403 382.18C567.643 382.32 567.923 382.42 568.243 382.48C568.563 382.54 568.893 382.57 569.233 382.57C570.073 382.57 570.723 382.43 571.183 382.15C571.643 381.87 571.983 381.54 572.203 381.16C572.423 380.76 572.553 380.36 572.593 379.96C572.653 379.56 572.683 379.24 572.683 379V377.41ZM580.37 363.58V385H584.63V363.58H580.37ZM591.284 379.96H587.234C587.274 381 587.504 381.87 587.924 382.57C588.364 383.25 588.914 383.8 589.574 384.22C590.254 384.64 591.024 384.94 591.884 385.12C592.744 385.3 593.624 385.39 594.524 385.39C595.404 385.39 596.264 385.3 597.104 385.12C597.964 384.96 598.724 384.67 599.384 384.25C600.044 383.83 600.574 383.28 600.974 382.6C601.394 381.9 601.604 381.04 601.604 380.02C601.604 379.3 601.464 378.7 601.184 378.22C600.904 377.72 600.534 377.31 600.074 376.99C599.614 376.65 599.084 376.38 598.484 376.18C597.904 375.98 597.304 375.81 596.684 375.67C596.084 375.53 595.494 375.4 594.914 375.28C594.334 375.16 593.814 375.03 593.354 374.89C592.914 374.73 592.554 374.53 592.274 374.29C591.994 374.05 591.854 373.74 591.854 373.36C591.854 373.04 591.934 372.79 592.094 372.61C592.254 372.41 592.444 372.26 592.664 372.16C592.904 372.06 593.164 372 593.444 371.98C593.724 371.94 593.984 371.92 594.224 371.92C594.984 371.92 595.644 372.07 596.204 372.37C596.764 372.65 597.074 373.2 597.134 374.02H601.184C601.104 373.06 600.854 372.27 600.434 371.65C600.034 371.01 599.524 370.5 598.904 370.12C598.284 369.74 597.574 369.47 596.774 369.31C595.994 369.15 595.184 369.07 594.344 369.07C593.504 369.07 592.684 369.15 591.884 369.31C591.084 369.45 590.364 369.71 589.724 370.09C589.084 370.45 588.564 370.95 588.164 371.59C587.784 372.23 587.594 373.05 587.594 374.05C587.594 374.73 587.734 375.31 588.014 375.79C588.294 376.25 588.664 376.64 589.124 376.96C589.584 377.26 590.104 377.51 590.684 377.71C591.284 377.89 591.894 378.05 592.514 378.19C594.034 378.51 595.214 378.83 596.054 379.15C596.914 379.47 597.344 379.95 597.344 380.59C597.344 380.97 597.254 381.29 597.074 381.55C596.894 381.79 596.664 381.99 596.384 382.15C596.124 382.29 595.824 382.4 595.484 382.48C595.164 382.54 594.854 382.57 594.554 382.57C594.134 382.57 593.724 382.52 593.324 382.42C592.944 382.32 592.604 382.17 592.304 381.97C592.004 381.75 591.754 381.48 591.554 381.16C591.374 380.82 591.284 380.42 591.284 379.96Z" fill="#252525"/>
<path d="M161.227 289.57H168.245C167.428 282.961 164.866 278.023 160.559 274.755C156.327 271.488 151.129 269.854 144.965 269.854C140.584 269.854 136.686 270.671 133.27 272.305C129.928 273.938 127.106 276.129 124.804 278.876C122.502 281.624 120.757 284.854 119.569 288.567C118.381 292.206 117.787 296.104 117.787 300.263C117.787 304.421 118.381 308.357 119.569 312.069C120.757 315.708 122.502 318.901 124.804 321.649C127.106 324.396 129.928 326.587 133.27 328.22C136.686 329.78 140.584 330.559 144.965 330.559C151.5 330.559 156.846 328.629 161.005 324.767C165.163 320.832 167.725 315.374 168.69 308.394H161.673C161.45 310.77 160.856 312.96 159.891 314.965C158.926 316.97 157.7 318.715 156.215 320.201C154.73 321.611 153.022 322.725 151.091 323.542C149.161 324.359 147.119 324.767 144.965 324.767C141.624 324.767 138.69 324.062 136.166 322.651C133.641 321.24 131.525 319.384 129.817 317.082C128.183 314.78 126.921 312.181 126.03 309.285C125.213 306.314 124.804 303.307 124.804 300.263C124.804 297.218 125.213 294.248 126.03 291.352C126.921 288.381 128.183 285.745 129.817 283.443C131.525 281.141 133.641 279.285 136.166 277.874C138.69 276.463 141.624 275.758 144.965 275.758C149.643 275.758 153.282 276.983 155.881 279.433C158.48 281.884 160.262 285.263 161.227 289.57ZM168.641 271.525L191.586 328.777L189.136 335.238C188.542 336.574 187.985 337.799 187.465 338.913C186.945 340.027 186.314 340.955 185.571 341.698C184.829 342.515 183.938 343.146 182.898 343.592C181.933 344.037 180.67 344.26 179.111 344.26C178.294 344.26 177.477 344.186 176.66 344.037C175.918 343.963 175.138 343.851 174.321 343.703V349.606C174.915 349.829 175.584 349.94 176.326 349.94C177.143 350.015 178.257 350.089 179.668 350.163C181.896 350.163 183.715 349.94 185.126 349.495C186.611 349.124 187.873 348.455 188.913 347.49C190.027 346.599 191.029 345.337 191.92 343.703C192.811 342.143 193.777 340.139 194.816 337.688L219.767 271.525H212.749L195.039 320.535L176.104 271.525H168.641ZM223.319 249.471V329H229.779V318.084H230.002C231.636 322.094 234.272 325.176 237.91 327.329C241.623 329.483 245.819 330.559 250.497 330.559C254.878 330.559 258.665 329.78 261.858 328.22C265.126 326.587 267.836 324.396 269.989 321.649C272.143 318.827 273.739 315.597 274.779 311.958C275.819 308.245 276.338 304.347 276.338 300.263C276.338 296.178 275.819 292.317 274.779 288.678C273.739 284.966 272.143 281.735 269.989 278.988C267.836 276.166 265.126 273.938 261.858 272.305C258.665 270.671 254.878 269.854 250.497 269.854C248.418 269.854 246.339 270.114 244.259 270.634C242.18 271.154 240.249 271.971 238.467 273.084C236.685 274.124 235.089 275.424 233.678 276.983C232.341 278.542 231.301 280.362 230.559 282.441H230.336V249.471H223.319ZM269.321 300.263C269.321 303.233 268.95 306.203 268.207 309.173C267.539 312.069 266.425 314.668 264.866 316.97C263.38 319.272 261.45 321.166 259.074 322.651C256.697 324.062 253.838 324.767 250.497 324.767C246.784 324.767 243.628 324.062 241.029 322.651C238.504 321.166 236.425 319.272 234.792 316.97C233.232 314.668 232.081 312.069 231.339 309.173C230.67 306.203 230.336 303.233 230.336 300.263C230.336 297.292 230.67 294.359 231.339 291.463C232.081 288.493 233.232 285.857 234.792 283.555C236.425 281.253 238.504 279.396 241.029 277.985C243.628 276.5 246.784 275.758 250.497 275.758C253.838 275.758 256.697 276.5 259.074 277.985C261.45 279.396 263.38 281.253 264.866 283.555C266.425 285.857 267.539 288.493 268.207 291.463C268.95 294.359 269.321 297.292 269.321 300.263ZM325.261 296.253H288.058C288.355 293.654 288.949 291.129 289.84 288.678C290.806 286.154 292.068 283.963 293.627 282.107C295.187 280.176 297.08 278.654 299.308 277.54C301.536 276.352 304.098 275.758 306.994 275.758C309.816 275.758 312.34 276.352 314.568 277.54C316.796 278.654 318.689 280.176 320.249 282.107C321.808 283.963 322.996 286.117 323.813 288.567C324.704 291.018 325.187 293.579 325.261 296.253ZM288.058 302.156H332.278C332.427 298.146 332.055 294.211 331.164 290.349C330.273 286.414 328.788 282.961 326.709 279.99C324.704 276.946 322.068 274.495 318.801 272.639C315.533 270.782 311.598 269.854 306.994 269.854C302.464 269.854 298.528 270.745 295.187 272.528C291.92 274.235 289.246 276.537 287.167 279.433C285.088 282.255 283.529 285.485 282.489 289.124C281.524 292.763 281.041 296.475 281.041 300.263C281.041 304.347 281.524 308.245 282.489 311.958C283.529 315.597 285.088 318.827 287.167 321.649C289.246 324.396 291.92 326.587 295.187 328.22C298.528 329.78 302.464 330.559 306.994 330.559C314.271 330.559 319.877 328.777 323.813 325.213C327.823 321.649 330.57 316.599 332.055 310.064H325.038C323.924 314.52 321.919 318.084 319.023 320.757C316.127 323.431 312.117 324.767 306.994 324.767C303.652 324.767 300.793 324.062 298.417 322.651C296.041 321.24 294.073 319.458 292.514 317.305C290.954 315.151 289.803 312.738 289.061 310.064C288.392 307.317 288.058 304.681 288.058 302.156ZM338.355 271.525V329H345.372V298.369C345.372 295.324 345.892 292.54 346.932 290.015C347.971 287.416 349.419 285.188 351.276 283.332C353.206 281.475 355.471 280.065 358.07 279.099C360.669 278.06 363.565 277.614 366.758 277.763V270.745C361.56 270.523 357.068 271.674 353.281 274.198C349.568 276.723 346.82 280.325 345.038 285.003H344.815V271.525H338.355Z" fill="#252525"/>
<path d="M451.829 329L469.985 271.414H453.722L443.141 310.399H442.918L433.116 271.414H417.745L408.166 310.51H407.943L397.361 271.414H380.654L398.921 329H415.294L425.096 290.349H425.319L435.567 329H451.829ZM512.139 294.025H486.409C486.483 292.911 486.706 291.649 487.077 290.238C487.523 288.827 488.228 287.49 489.194 286.228C490.233 284.966 491.57 283.926 493.203 283.109C494.911 282.218 497.028 281.773 499.552 281.773C503.414 281.773 506.273 282.812 508.129 284.891C510.06 286.971 511.396 290.015 512.139 294.025ZM486.409 304.05H527.956C528.253 299.594 527.881 295.324 526.842 291.24C525.802 287.156 524.094 283.518 521.718 280.325C519.416 277.131 516.446 274.607 512.807 272.75C509.169 270.82 504.899 269.854 499.998 269.854C495.617 269.854 491.607 270.634 487.968 272.193C484.404 273.753 481.322 275.906 478.723 278.654C476.124 281.327 474.119 284.52 472.708 288.233C471.298 291.946 470.592 295.956 470.592 300.263C470.592 304.718 471.26 308.802 472.597 312.515C474.008 316.228 475.976 319.421 478.5 322.094C481.025 324.767 484.107 326.847 487.745 328.332C491.384 329.743 495.468 330.448 499.998 330.448C506.533 330.448 512.102 328.963 516.706 325.993C521.31 323.022 524.725 318.084 526.953 311.178H513.03C512.51 312.96 511.099 314.668 508.797 316.302C506.495 317.861 503.748 318.641 500.555 318.641C496.099 318.641 492.684 317.49 490.307 315.188C487.931 312.886 486.632 309.173 486.409 304.05ZM572.757 294.025H547.027C547.101 292.911 547.324 291.649 547.695 290.238C548.141 288.827 548.846 287.49 549.812 286.228C550.851 284.966 552.188 283.926 553.821 283.109C555.529 282.218 557.646 281.773 560.17 281.773C564.032 281.773 566.891 282.812 568.747 284.891C570.678 286.971 572.014 290.015 572.757 294.025ZM547.027 304.05H588.574C588.871 299.594 588.5 295.324 587.46 291.24C586.42 287.156 584.712 283.518 582.336 280.325C580.034 277.131 577.064 274.607 573.425 272.75C569.787 270.82 565.517 269.854 560.616 269.854C556.235 269.854 552.225 270.634 548.586 272.193C545.022 273.753 541.94 275.906 539.341 278.654C536.742 281.327 534.737 284.52 533.327 288.233C531.916 291.946 531.21 295.956 531.21 300.263C531.21 304.718 531.879 308.802 533.215 312.515C534.626 316.228 536.594 319.421 539.119 322.094C541.643 324.767 544.725 326.847 548.364 328.332C552.002 329.743 556.086 330.448 560.616 330.448C567.151 330.448 572.72 328.963 577.324 325.993C581.928 323.022 585.344 318.084 587.571 311.178H573.648C573.128 312.96 571.717 314.668 569.415 316.302C567.114 317.861 564.366 318.641 561.173 318.641C556.718 318.641 553.302 317.49 550.925 315.188C548.549 312.886 547.25 309.173 547.027 304.05ZM596.061 249.471V329H611.878V309.173L618.004 303.27L633.821 329H652.979L628.808 292.577L650.529 271.414H631.816L611.878 292.131V249.471H596.061Z" fill="#ED0000"/>
</svg>
